<mxfile host="app.diagrams.net" modified="2022-04-18T16:46:00.214Z" agent="5.0 (Windows NT 10.0; Win64; x64) AppleWebKit/537.36 (KHTML, like Gecko) Chrome/100.0.4896.88 Safari/537.36" etag="dhgt9S7kEWxA6Id8_8Tc" version="17.4.5" type="github">
  <diagram id="Lg1-m9rCkAn-F9dMwQVI" name="Page-1">
    <mxGraphModel dx="2272" dy="705" grid="1" gridSize="10" guides="1" tooltips="1" connect="1" arrows="1" fold="1" page="1" pageScale="1" pageWidth="850" pageHeight="1100" math="0" shadow="0">
      <root>
        <mxCell id="0" />
        <mxCell id="1" parent="0" />
        <mxCell id="ggECxQ5bnYkpTFamOA34-1" value="Get Used By" style="edgeStyle=orthogonalEdgeStyle;rounded=0;orthogonalLoop=1;jettySize=auto;html=1;exitX=0;exitY=0.5;exitDx=0;exitDy=0;fontSize=16;strokeWidth=3;" parent="1" source="ggECxQ5bnYkpTFamOA34-3" target="ggECxQ5bnYkpTFamOA34-4" edge="1">
          <mxGeometry relative="1" as="geometry" />
        </mxCell>
        <mxCell id="ggECxQ5bnYkpTFamOA34-2" value="Get Used By" style="edgeStyle=orthogonalEdgeStyle;rounded=0;orthogonalLoop=1;jettySize=auto;html=1;exitX=1;exitY=0.5;exitDx=0;exitDy=0;entryX=0;entryY=0.5;entryDx=0;entryDy=0;fontSize=16;strokeWidth=3;" parent="1" source="ggECxQ5bnYkpTFamOA34-3" target="ggECxQ5bnYkpTFamOA34-5" edge="1">
          <mxGeometry relative="1" as="geometry" />
        </mxCell>
        <mxCell id="ggECxQ5bnYkpTFamOA34-3" value="&lt;font style=&quot;font-size: 24px&quot;&gt;Instant Heal Pack&lt;br&gt;&lt;/font&gt;" style="rounded=1;whiteSpace=wrap;html=1;strokeWidth=3;" parent="1" vertex="1">
          <mxGeometry x="210" y="210" width="190" height="90" as="geometry" />
        </mxCell>
        <mxCell id="ggECxQ5bnYkpTFamOA34-4" value="&lt;font style=&quot;font-size: 24px&quot;&gt;Player&lt;/font&gt;" style="rounded=1;whiteSpace=wrap;html=1;strokeWidth=3;" parent="1" vertex="1">
          <mxGeometry x="-120" y="210" width="190" height="90" as="geometry" />
        </mxCell>
        <mxCell id="ggECxQ5bnYkpTFamOA34-5" value="&lt;font style=&quot;font-size: 24px&quot;&gt;Character&lt;/font&gt;" style="rounded=1;whiteSpace=wrap;html=1;strokeWidth=3;" parent="1" vertex="1">
          <mxGeometry x="540" y="210" width="190" height="90" as="geometry" />
        </mxCell>
        <mxCell id="qPg1bpDZ_K9uhxqoZi8M-2" style="edgeStyle=orthogonalEdgeStyle;rounded=0;orthogonalLoop=1;jettySize=auto;html=1;entryX=0.5;entryY=0;entryDx=0;entryDy=0;fontSize=19;strokeWidth=3;" edge="1" parent="1" source="qPg1bpDZ_K9uhxqoZi8M-1" target="ggECxQ5bnYkpTFamOA34-3">
          <mxGeometry relative="1" as="geometry" />
        </mxCell>
        <mxCell id="qPg1bpDZ_K9uhxqoZi8M-1" value="&lt;font style=&quot;font-size: 24px&quot;&gt;In Game Item&lt;br&gt;&lt;/font&gt;" style="rounded=1;whiteSpace=wrap;html=1;strokeWidth=3;" vertex="1" parent="1">
          <mxGeometry x="210" y="20" width="190" height="90" as="geometry" />
        </mxCell>
        <mxCell id="qPg1bpDZ_K9uhxqoZi8M-3" value="is a" style="text;html=1;strokeColor=none;fillColor=none;align=center;verticalAlign=middle;whiteSpace=wrap;rounded=0;labelBackgroundColor=default;fontSize=19;" vertex="1" parent="1">
          <mxGeometry x="275" y="140" width="60" height="30" as="geometry" />
        </mxCell>
      </root>
    </mxGraphModel>
  </diagram>
</mxfile>
